<svg width="478" height="243" viewBox="0 0 478 243" fill="none" xmlns="http://www.w3.org/2000/svg">
<path d="M260.141 0L210.07 9.77078L226.299 23.8555L140.947 122.141L96.6439 90.9792L95.8833 90.4389C91.5444 87.4092 85.5307 88.1241 82.0355 92.2385L0 188.899L1.48785 190.387L90.7132 114.66L136.251 146.691C140.968 149.986 147.551 149.284 151.408 144.845L243.509 38.788L257.515 50.9444L260.141 0ZM208.029 96.0703V241.198H246.003V52.345L208.029 96.0703ZM162.014 241.198H199.987V105.334L162.014 149.059V241.198ZM116.003 144.77V241.198H153.972V158.315L146.882 166.486L116.003 144.77ZM69.9872 144.692V241.198H107.961V139.114L91.1829 127.315L69.9872 144.692ZM61.9453 151.279V241.198H23.976V182.403L61.9453 151.279Z" fill="white"/>
<path d="M264.1 81H279.8L286.8 131.1H287L294 81H309.7V151H299.3V98H299.1L291.1 151H281.9L273.9 98H273.7V151H264.1V81ZM333.809 152C328.409 152 324.275 150.467 321.409 147.4C318.542 144.333 317.109 140 317.109 134.4V97.6C317.109 92 318.542 87.6667 321.409 84.6C324.275 81.5333 328.409 80 333.809 80C339.209 80 343.342 81.5333 346.209 84.6C349.075 87.6667 350.509 92 350.509 97.6V134.4C350.509 140 349.075 144.333 346.209 147.4C343.342 150.467 339.209 152 333.809 152ZM333.809 142C337.609 142 339.509 139.7 339.509 135.1V96.9C339.509 92.3 337.609 90 333.809 90C330.009 90 328.109 92.3 328.109 96.9V135.1C328.109 139.7 330.009 142 333.809 142ZM357.948 81H371.748L382.448 122.9H382.648V81H392.448V151H381.148L367.948 99.9H367.748V151H357.948V81ZM400.623 81H430.623V91H411.623V109.5H426.723V119.5H411.623V141H430.623V151H400.623V81ZM447.052 121.2L433.752 81H445.452L452.952 106.7H453.152L460.652 81H471.352L458.052 121.2V151H447.052V121.2Z" fill="white"/>
<path d="M264.1 171H293.2V181H275.1V200.5H289.3V210.5H275.1V241H264.1V171ZM298.475 171H309.475V241H298.475V171ZM314.813 171H325.913L333.113 225.3H333.313L340.513 171H350.613L340.013 241H325.413L314.813 171ZM355.897 171H385.897V181H366.897V199.5H381.997V209.5H366.897V231H385.897V241H355.897V171Z" fill="white"/>
</svg>
